<?xml version="1.0" encoding="UTF-8"?>
<svg width="14px" height="14px" viewBox="0 0 14 14" version="1.1" xmlns="http://www.w3.org/2000/svg" xmlns:xlink="http://www.w3.org/1999/xlink">
    <!-- Generator: Sketch 50.2 (55047) - http://www.bohemiancoding.com/sketch -->
    <title>Slice</title>
    <desc>Created with Sketch.</desc>
    <defs></defs>
    <g id="Page-1" stroke="none" stroke-width="1" fill="none" fill-rule="evenodd">
        <rect id="Rectangle" stroke="#FF0000" x="-0.5" y="-0.5" width="15" height="15"></rect>
        <g id="address" transform="translate(1.500000, 0.000000)" fill="#55565A" fill-rule="nonzero">
            <path d="M5.51134021,0.684039088 C8.16494845,0.684039088 10.3195876,2.85016287 10.3195876,5.51791531 C10.3195876,5.65472313 10.2969072,5.79153094 10.2742268,5.92833876 C10.1835052,6.70358306 9.86597938,7.43322476 9.32164948,8.14006515 L8.14226804,9.66775244 L7.62061856,10.3517915 C6.98556701,11.1954397 5.8742268,12.6547231 5.46597938,13.1791531 C5.03505155,12.6091205 3.94639175,11.1726384 3.31134021,10.3517915 L2.78969072,9.66775244 L1.61030928,8.14006515 C1.06597938,7.43322476 0.771134021,6.72638436 0.657731959,5.92833876 C0.635051546,5.79153094 0.635051546,5.65472313 0.635051546,5.51791531 C0.680412371,2.85016287 2.83505155,0.684039088 5.51134021,0.684039088 Z M5.51134021,0 C2.47216495,0 0,2.46254072 0,5.51791531 L0,5.54071661 C0,5.70032573 0.0226804124,5.85993485 0.0453608247,6.01954397 C0.158762887,6.9771987 0.544329897,7.7980456 1.13402062,8.5504886 C1.70103093,9.28013029 2.26804124,10.0325733 2.81237113,10.762215 C3.60618557,11.8110749 5.14845361,13.8175896 5.14845361,13.8403909 C5.23917526,13.9315961 5.35257732,14 5.48865979,14 L5.51134021,14 C5.64742268,14 5.76082474,13.9315961 5.85154639,13.8403909 C5.85154639,13.8403909 7.39381443,11.8110749 8.18762887,10.762215 C8.75463918,10.0325733 9.29896907,9.28013029 9.86597938,8.5504886 C10.4329897,7.7980456 10.8185567,6.95439739 10.9546392,6.01954397 C10.9773196,5.85993485 10.9773196,5.70032573 11,5.54071661 L11,5.51791531 C11,2.46254072 8.52783505,0 5.51134021,0 Z" id="Shape"></path>
            <path d="M5.5,3.63829787 C6.24468085,3.63829787 6.86170213,4.25531915 6.86170213,5 C6.86170213,5.74468085 6.24468085,6.36170213 5.5,6.36170213 C4.75531915,6.36170213 4.13829787,5.74468085 4.13829787,5 C4.13829787,4.25531915 4.75531915,3.63829787 5.5,3.63829787 Z M5.5,3 C4.39361702,3 3.5,3.89361702 3.5,5 C3.5,6.10638298 4.39361702,7 5.5,7 C6.60638298,7 7.5,6.10638298 7.5,5 C7.5,3.89361702 6.60638298,3 5.5,3 Z" id="Shape"></path>
        </g>
    </g>
</svg>