<?xml version="1.0" encoding="UTF-8"?>
<svg width="60px" height="19px" viewBox="0 0 60 19" version="1.1" xmlns="http://www.w3.org/2000/svg" xmlns:xlink="http://www.w3.org/1999/xlink">
    <!-- Generator: Sketch 50.2 (55047) - http://www.bohemiancoding.com/sketch -->
    <title>Clipped</title>
    <desc>Created with Sketch.</desc>
    <defs>
        <polygon id="path-1" points="0 0 60 0 60 19 1.12680228e-14 19"></polygon>
    </defs>
    <g id="Welcome" stroke="none" stroke-width="1" fill="none" fill-rule="evenodd">
        <g id="Desktop-HD" transform="translate(-612.000000, -178.000000)">
            <g id="Clipped" transform="translate(612.000000, 178.000000)">
                <mask id="mask-2" fill="white">
                    <use xlink:href="#path-1"></use>
                </mask>
                <g id="Shape"></g>
                <path d="M44.7641696,11.5897741 L46.3258026,11.5897741 L46.3258026,4.12683314 L44.7641696,4.25485533 L44.7641696,11.5897741 Z M45.5410226,1.09948474 C44.9544193,1.09948474 44.470868,1.54379707 44.470868,2.12366231 C44.470868,2.68093539 44.9464923,3.13277844 45.5410226,3.13277844 C46.1355529,3.13277844 46.6111772,2.68846611 46.6111772,2.12366231 C46.6111772,1.54379707 46.1355529,1.09948474 45.5410226,1.09948474 Z M58.3115339,4.12683314 L56.0523187,9.05192231 L53.6424891,4.12683314 L50.5112961,4.12683314 L50.5112961,3.48672216 C50.5112961,2.71858898 50.8917955,2.39476813 51.6686484,2.39476813 C51.9143876,2.39476813 52.183908,2.43242172 52.4772097,2.50772889 L52.8260008,1.33293698 C52.3662307,1.18232263 51.8509711,1.09948474 51.288149,1.09948474 C49.7661514,1.09948474 48.941736,2.0332937 48.941736,3.3737614 L48.941736,4.11930242 L47.594134,4.23226318 L47.594134,5.40705509 L48.941736,5.40705509 L48.941736,11.5822434 L50.5112961,11.5822434 L50.5112961,5.40705509 L52.5564804,5.40705509 L55.2833928,10.7237416 C55.0535077,11.1981768 54.7839873,11.7102656 54.3400713,12.0416171 C53.9437178,12.3353151 53.4522394,12.365438 52.9686881,12.2675386 L52.6119699,13.4724534 C53.3095521,13.7134364 54.2132382,13.6908442 54.8711851,13.3444312 C55.5925486,12.9754261 56.0602457,12.2675386 56.4011098,11.5747126 L60,4.1117717 L58.3115339,4.1117717 L58.3115339,4.12683314 Z M39.5640111,10.4827586 C38.2481173,10.4752279 37.1621086,9.46611177 37.1621086,7.86206897 C37.1621086,6.25802616 38.2560444,5.24891003 39.5640111,5.24137931 C40.8799049,5.25644075 41.9659136,6.25802616 41.9659136,7.86206897 C41.9659136,9.46611177 40.8719778,10.4676972 39.5640111,10.4827586 Z M39.5640111,3.92350377 C38.6048355,3.93103448 37.764566,4.26991677 37.1383274,4.84978201 L37.1383274,1.30281411 L35.6638922,1.42330559 L35.6638922,11.5897741 L37.1383274,11.5897741 L37.1383274,10.8743559 C37.764566,11.4542212 38.6127626,11.7931034 39.5640111,11.8006342 C41.783591,11.7931034 43.4799841,10.1514071 43.4799841,7.86959968 C43.4799841,5.57273088 41.783591,3.9385652 39.5640111,3.92350377 Z M22.4019025,5.23384859 C23.2659532,5.24137931 24.0348791,5.71581451 24.4629409,6.46135553 L25.7391994,5.72334522 C25.0574713,4.61632977 23.8446294,3.93103448 22.4098296,3.92350377 C20.1902497,3.93103448 18.4938565,5.57273088 18.4938565,7.85453825 C18.4938565,10.1438763 20.1902497,11.778042 22.4098296,11.7855727 C23.8446294,11.778042 25.0653983,11.0927467 25.7391994,9.98573127 L24.4629409,9.24772097 C24.0428062,9.98573127 23.2738803,10.4676972 22.4019025,10.4752279 C21.0860087,10.4676972 20,9.45858105 20,7.85453825 C20,6.25049544 21.0860087,5.24891003 22.4019025,5.23384859 Z M30.2497027,10.4827586 C28.933809,10.4752279 27.8478002,9.46611177 27.8478002,7.86206897 C27.8478002,6.25802616 28.941736,5.24891003 30.2497027,5.24137931 C31.5655965,5.25644075 32.6516052,6.25802616 32.6516052,7.86206897 C32.6516052,9.46611177 31.5655965,10.4676972 30.2497027,10.4827586 Z M32.6753864,4.84978201 C32.0491478,4.26991677 31.2009512,3.93103448 30.2497027,3.92350377 C28.0301229,3.93103448 26.3337297,5.57273088 26.3337297,7.85453825 C26.3337297,10.1438763 28.0301229,11.778042 30.2497027,11.7855727 C31.2009512,11.778042 32.0491478,11.4391597 32.6753864,10.8592945 L32.6753864,11.5822434 L34.1498216,11.5822434 L34.1498216,4.11930242 L32.6753864,4.2397939 L32.6753864,4.84978201 Z M5.35869996,10.6484344 L8.28378914,13.4272691 L11.2088783,10.6484344 C11.7479191,10.1363456 12.6198969,10.1363456 13.1589378,10.6484344 C13.6979786,11.1605232 13.6979786,11.9889021 13.1589378,12.5009909 L8.27586207,17.1399128 L3.39278637,12.5009909 C2.14030916,11.3111375 1.37138327,9.67697186 1.37138327,7.86206897 C1.37138327,4.2397939 4.46294094,1.30281411 8.27586207,1.30281411 C10.1783591,1.30281411 11.9064606,2.0332937 13.1589378,3.22314705 C13.6979786,3.73523583 13.6979786,4.56361474 13.1589378,5.07570353 C12.6198969,5.58779231 11.7479191,5.58779231 11.2088783,5.07570353 C10.4558066,4.36028537 9.42528736,3.92350377 8.28378914,3.92350377 C5.99286564,3.92350377 4.14585811,5.68569164 4.14585811,7.85453825 C4.14585811,8.94649227 4.60562822,9.93301625 5.35869996,10.6484344 Z M8.28378914,5.24137931 C9.04478795,5.24137931 9.73444312,5.53507729 10.2338486,6.00951249 C11.3119302,7.03369005 13.0558859,7.03369005 14.1418946,6.00951249 C15.2199762,4.98533492 15.2199762,3.32857709 14.1418946,2.30439952 C12.6436782,0.881093936 10.5747126,0 8.28378914,0 C3.7098692,0 0,3.52437574 0,7.86959968 C0,10.045977 0.927467301,12.0114943 2.42568371,13.4347998 L8.28378914,19 L14.1418946,13.4347998 C15.2199762,12.4106223 15.2199762,10.7538644 14.1418946,9.72968688 C13.0638129,8.70550931 11.3119302,8.70550931 10.2338486,9.72968688 L8.28378914,11.5822434 L6.33372969,9.72968688 C5.83432422,9.25525168 5.52516845,8.60007927 5.52516845,7.8771304 C5.52516845,6.41617122 6.76179152,5.24137931 8.28378914,5.24137931 Z" id="Shape" fill="#FFFFFF" fill-rule="nonzero" mask="url(#mask-2)"></path>
            </g>
        </g>
    </g>
</svg>