<?xml version="1.0" encoding="UTF-8"?>
<svg width="12px" height="16px" viewBox="0 0 12 16" version="1.1" xmlns="http://www.w3.org/2000/svg" xmlns:xlink="http://www.w3.org/1999/xlink">
    <!-- Generator: Sketch 50.2 (55047) - http://www.bohemiancoding.com/sketch -->
    <title>Shape</title>
    <desc>Created with Sketch.</desc>
    <defs></defs>
    <g id="Page-1" stroke="none" stroke-width="1" fill="none" fill-rule="evenodd">
        <g id="cabify-logo-min" fill="#4C58A7" fill-rule="nonzero">
            <path d="M8.12,8.06 L6.68,9.5 L5.24,8.06 C4.87,7.69 4.64,7.18 4.64,6.62 C4.64,5.5 5.55,4.59 6.67,4.59 C7.23,4.59 7.74,4.82 8.11,5.19 C8.9,5.98 10.19,5.98 10.99,5.19 C11.78,4.4 11.78,3.11 10.99,2.31 C9.89,1.21 8.36,0.52 6.68,0.52 C3.31,0.52 0.58,3.25 0.58,6.62 C0.58,8.31 1.26,9.83 2.37,10.94 L6.69,15.26 L11,10.94 C11.79,10.15 11.79,8.86 11,8.06 C10.2,7.27 8.91,7.27 8.12,8.06 Z M10.28,10.22 L6.68,13.82 L3.08,10.22 C2.16,9.3 1.59,8.03 1.59,6.62 C1.59,3.81 3.87,1.54 6.68,1.54 C8.08,1.54 9.36,2.11 10.28,3.03 C10.68,3.43 10.68,4.07 10.28,4.47 C9.88,4.87 9.24,4.87 8.84,4.47 C8.29,3.92 7.53,3.58 6.68,3.58 C4.99,3.58 3.63,4.95 3.63,6.63 C3.63,7.47 3.97,8.24 4.52,8.79 L6.68,10.95 L8.84,8.79 C9.24,8.39 9.88,8.39 10.28,8.79 C10.67,9.18 10.67,9.82 10.28,10.22 Z" id="Shape"></path>
        </g>
    </g>
</svg>