<?xml version="1.0" encoding="UTF-8"?>
<svg width="14px" height="14px" viewBox="0 0 14 14" version="1.1" xmlns="http://www.w3.org/2000/svg" xmlns:xlink="http://www.w3.org/1999/xlink">
    <!-- Generator: Sketch 50.2 (55047) - http://www.bohemiancoding.com/sketch -->
    <title>Slice</title>
    <desc>Created with Sketch.</desc>
    <defs></defs>
    <g id="Page-1" stroke="none" stroke-width="1" fill="none" fill-rule="evenodd">
        <rect id="Rectangle" stroke="#FF0000" x="-0.5" y="-0.5" width="15" height="15"></rect>
        <g id="email" transform="translate(0.000000, 2.500000)" fill="#55565A" fill-rule="nonzero">
            <path d="M12.9773913,9 L1.0226087,9 C0.462608696,9 0,8.56265985 0,8.03324808 L0,0.966751918 C0,0.437340153 0.462608696,0 1.0226087,0 L12.9773913,0 C13.5373913,0 14,0.437340153 14,0.966751918 L14,8.03324808 C14,8.56265985 13.5373913,9 12.9773913,9 Z M1.0226087,0.690537084 C0.852173913,0.690537084 0.706086957,0.828644501 0.706086957,0.989769821 L0.706086957,8.05626598 C0.706086957,8.2173913 0.852173913,8.35549872 1.0226087,8.35549872 L12.9773913,8.35549872 C13.1478261,8.35549872 13.293913,8.2173913 13.293913,8.05626598 L13.293913,0.989769821 C13.293913,0.828644501 13.1478261,0.690537084 12.9773913,0.690537084 L1.0226087,0.690537084 Z" id="Shape"></path>
            <path d="M1.44913628,9 L1,8.46511628 L6.63915547,4.27906977 C7.13819578,3.90697674 7.93666027,3.90697674 8.43570058,4.27906977 L14,8.46511628 L13.5508637,9 L7.9865643,4.81395349 C7.73704415,4.62790698 7.3378119,4.62790698 7.08829175,4.81395349 L1.44913628,9 Z" id="Shape"></path>
            <path d="M8.58550538,5 L8.12203117,4.48837209 L13.1714607,0.279069767 L13.1714607,0 L13.6349349,0 C13.7812952,0 13.9276554,0.0930232558 13.9764422,0.209302326 C14.025229,0.348837209 14.0008356,0.488372093 13.8788687,0.581395349 L8.58550538,5 Z M6.438888,4.97674419 L1.12113131,0.604651163 C0.999164414,0.511627907 0.974771035,0.372093023 1.02355779,0.23255814 C1.07234455,0.0930232558 1.21870483,0.023255814 1.3650651,0.023255814 L1.92611283,0.023255814 L1.92611283,0.372093023 L6.92675559,4.46511628 L6.438888,4.97674419 Z" id="Shape"></path>
        </g>
    </g>
</svg>