<?xml version="1.0" encoding="UTF-8"?>
<svg width="14px" height="14px" viewBox="0 0 14 14" version="1.1" xmlns="http://www.w3.org/2000/svg" xmlns:xlink="http://www.w3.org/1999/xlink">
    <!-- Generator: Sketch 50.2 (55047) - http://www.bohemiancoding.com/sketch -->
    <title>Slice</title>
    <desc>Created with Sketch.</desc>
    <defs></defs>
    <g id="Page-1" stroke="none" stroke-width="1" fill="none" fill-rule="evenodd">
        <g id="phone" fill="#55565A" fill-rule="nonzero">
            <path d="M10.9275422,8.71629779 C10.6389721,8.42857143 10.2979347,8.27162978 9.93066372,8.27162978 C9.56339272,8.27162978 9.22235535,8.42857143 8.93378528,8.71629779 L8.01560776,9.63179074 C7.93690683,9.57947686 7.8582059,9.55331992 7.77950497,9.52716298 C7.67457039,9.47484909 7.56963582,9.42253521 7.49093489,9.37022133 C6.62522466,8.82092555 5.83821536,8.11468813 5.0774397,7.17303823 C4.71016869,6.70221328 4.4740659,6.3360161 4.2904304,5.94366197 C4.52653319,5.73440644 4.76263598,5.49899396 4.97250512,5.28973843 C5.05120605,5.21126761 5.12990698,5.13279678 5.20860791,5.05432596 C5.81198171,4.4527163 5.81198171,3.64185111 5.20860791,3.04024145 L4.42159861,2.2555332 C4.34289768,2.17706237 4.23796311,2.07243461 4.15926218,1.96780684 C3.97562668,1.78470825 3.79199117,1.60160966 3.60835567,1.41851107 C3.31978559,1.13078471 2.97874823,1 2.63771086,1 C2.2966735,1 1.92940249,1.15694165 1.64083241,1.41851107 L0.643953965,2.41247485 C0.276682958,2.77867203 0.0668138105,3.24949698 0.0143465237,3.77263581 C-0.0643544064,4.63581489 0.197982027,5.42052314 0.381617531,5.94366197 C0.853823112,7.22535211 1.56213148,8.40241449 2.61147722,9.65794769 C3.89692574,11.1750503 5.4447107,12.3782696 7.20236481,13.2414487 C7.88443954,13.555332 8.77638341,13.9476861 9.77326186,14 L9.95689737,14 C10.6389721,14 11.1898786,13.7645875 11.6358505,13.2676056 C11.7932524,13.084507 11.9506543,12.9275654 12.1605234,12.7444668 C12.2916916,12.6136821 12.4228598,12.5090543 12.5540281,12.3782696 C12.8425981,12.0643863 13,11.7243461 13,11.3581489 C13,10.9919517 12.8425981,10.6519115 12.5540281,10.3641851 L10.9275422,8.71629779 Z M11.9768879,11.77666 C11.9768879,11.77666 11.9768879,11.8028169 11.9768879,11.77666 C11.8719533,11.9074447 11.7407851,12.0120724 11.6096169,12.1428571 C11.4259814,12.3259557 11.2161122,12.5090543 11.0587104,12.7183099 C10.7701403,13.0321932 10.4028693,13.1891348 9.95689737,13.1891348 C9.90443008,13.1891348 9.87819644,13.1891348 9.82572915,13.1891348 C8.96001892,13.1368209 8.14677597,12.7967807 7.54340218,12.5090543 C5.89068264,11.7243461 4.44783226,10.5734406 3.21485102,9.13480885 C2.21797257,7.93158954 1.56213148,6.83299799 1.11615955,5.62977867 C0.853823112,4.89738431 0.748888539,4.34808853 0.801355825,3.79879276 C0.827589469,3.45875252 0.958757686,3.17102616 1.19486048,2.93561368 L2.19173892,1.9416499 C2.32290714,1.81086519 2.480309,1.73239437 2.63771086,1.73239437 C2.82134637,1.73239437 2.97874823,1.83702213 3.05744916,1.9416499 C3.24108466,2.09859155 3.39848652,2.28169014 3.58212202,2.46478873 C3.66082295,2.5694165 3.76575753,2.64788732 3.8706921,2.75251509 L4.6577014,3.53722334 C4.97250512,3.85110664 4.97250512,4.138833 4.6577014,4.4527163 C4.57900047,4.53118712 4.50029954,4.60965795 4.39536497,4.71428571 C4.15926218,4.97585513 3.92315939,5.18511066 3.66082295,5.42052314 C3.66082295,5.42052314 3.66082295,5.42052314 3.63458931,5.44668008 C3.37225288,5.7082495 3.42472016,5.94366197 3.47718745,6.10060362 L3.47718745,6.12676056 C3.6870566,6.62374245 3.97562668,7.0945674 4.42159861,7.67002012 C5.23484156,8.6639839 6.07431815,9.42253521 7.01872931,10.0241449 C7.14989752,10.1026157 7.2548321,10.1549296 7.38600032,10.2072435 C7.49093489,10.2595573 7.59586946,10.3118712 7.67457039,10.3641851 C7.67457039,10.3641851 7.70080404,10.3903421 7.70080404,10.3903421 C7.80573861,10.4426559 7.88443954,10.4688129 7.98937411,10.4688129 C8.2254769,10.4688129 8.38287876,10.3118712 8.43534605,10.2595573 L9.4322245,9.26559356 C9.53715907,9.16096579 9.69456093,9.05633803 9.87819644,9.05633803 C10.0618319,9.05633803 10.2192338,9.16096579 10.2979347,9.26559356 L11.898187,10.861167 C12.265458,11.1750503 12.265458,11.4889336 11.9768879,11.77666 Z" id="Shape"></path>
            <path d="M7.37022583,3.73679589 C8.28118051,3.86327667 9.12931073,4.21742285 9.78896757,4.74864213 C10.4486244,5.2798614 10.8883956,5.96285761 11.0454568,6.69644613 C11.076869,6.87351922 11.2967546,7 11.5166402,7 L11.6108769,7 C11.8621748,6.97470384 12.0506482,6.7723346 11.9878237,6.56996535 C11.7993503,5.68459989 11.2653424,4.84982675 10.4800366,4.21742285 C9.69473088,3.58501895 8.65812727,3.1549843 7.55869921,3.00320737 C7.30740137,2.97791121 7.05610353,3.10439199 7.0246913,3.30676124 C6.93045461,3.48383433 7.11892799,3.68620358 7.37022583,3.73679589 Z" id="Shape"></path>
            <path d="M13.9964216,6.52233159 C13.7155839,4.89263935 12.9573218,3.40343782 11.7778032,2.22331586 C10.5982845,1.04319389 9.1098442,0.256445919 7.48098505,0.00356264045 C7.25631483,-0.0245355016 7.0316446,0.115955208 7.00356082,0.340740345 C6.97547704,0.565525481 7.11589593,0.790310617 7.34056616,0.818408759 C8.80092264,1.07129204 10.1208602,1.74564744 11.1880438,2.81337684 C12.2552274,3.88110624 12.9292381,5.20171891 13.1819921,6.6628223 C13.2100759,6.85950929 13.4066623,7 13.6032488,7 L13.6875001,7 C13.8840865,6.97190186 14.0245054,6.74711672 13.9964216,6.52233159 Z" id="Shape"></path>
        </g>
        <rect id="Rectangle" stroke="#FF0000" x="-0.5" y="-0.5" width="15" height="15"></rect>
    </g>
</svg>