<?xml version="1.0" encoding="UTF-8"?>
<svg width="14px" height="14px" viewBox="0 0 14 14" version="1.1" xmlns="http://www.w3.org/2000/svg" xmlns:xlink="http://www.w3.org/1999/xlink">
    <!-- Generator: Sketch 50.2 (55047) - http://www.bohemiancoding.com/sketch -->
    <title>website</title>
    <desc>Created with Sketch.</desc>
    <defs></defs>
    <g id="Page-1" stroke="none" stroke-width="1" fill="none" fill-rule="evenodd">
        <rect id="Rectangle" stroke="#FF0000" x="-0.5" y="-0.5" width="15" height="15"></rect>
        <g id="website" fill="#55565A" fill-rule="nonzero">
            <path d="M6.99993823,14 C3.13395927,14 0,10.8660131 0,7 C0,3.13398693 3.13395927,0 6.99993823,0 C10.8659172,0 13.9998765,3.13398693 13.9998765,7 C14.0227521,10.8660131 10.8659172,14 6.99993823,14 Z M6.99993823,0.68627451 C3.52284473,0.68627451 0.686268454,3.52287582 0.686268454,7 C0.686268454,10.4771242 3.52284473,13.3137255 6.99993823,13.3137255 C10.4770317,13.3137255 13.313608,10.4771242 13.313608,7 C13.313608,3.52287582 10.4999073,0.68627451 6.99993823,0.68627451 Z" id="Shape"></path>
            <path d="M8.94752207,7.94957983 C8.9190911,8.08963585 8.83379816,8.08963585 8.80536718,7.94957983 L7.58283507,4.25210084 C7.52597311,4.11204482 7.38381822,4 7.24166332,4 L6.7299057,4 C6.5877508,4 6.44559591,4.11204482 6.38873395,4.25210084 L5.19463282,7.92156863 C5.13777086,8.06162465 5.0809089,8.06162465 5.05247793,7.92156863 L4.05739365,4.25210084 C4.02896267,4.11204482 3.8583768,4 3.7162219,4 L3.20446428,4 C3.06230938,4 2.97701644,4.11204482 3.00544742,4.25210084 L4.51228932,9.46218487 C4.5407203,9.6022409 4.6828752,9.71428571 4.85346107,9.71428571 L5.33678772,9.71428571 C5.47894261,9.71428571 5.62109751,9.6022409 5.67795947,9.46218487 L6.92892255,5.65266106 C6.98578451,5.51260504 7.04264647,5.51260504 7.09950843,5.65266106 L8.35047151,9.46218487 C8.40733347,9.6022409 8.54948837,9.71428571 8.69164326,9.71428571 L9.17496991,9.71428571 C9.3171248,9.71428571 9.4592797,9.6022409 9.51614166,9.46218487 L10.9945526,4.25210084 C11.0229836,4.11204482 10.9376906,4 10.7955357,4 L10.3122091,4 C10.1700542,4 10.0278993,4.11204482 9.97103733,4.25210084 L8.94752207,7.94957983 Z" id="Shape"></path>
        </g>
    </g>
</svg>